<svg width="16" height="20" viewBox="0 0 16 20" fill="none" xmlns="http://www.w3.org/2000/svg">
<path fill-rule="evenodd" clip-rule="evenodd" d="M8 0C10.2091 0 12 1.79086 12 4C12 6.20914 10.2091 8 8 8C5.79086 8 4 6.20914 4 4C4 1.79086 5.79086 0 8 0ZM14 18V17C14 13.7616 11.4344 11.1224 8.22494 11.0041L8 11C5.02694 11 2.55893 13.1624 2.08293 16.0002L0.0618877 16C0.553964 12.0537 3.92037 9 8 9C12.4183 9 16 12.5817 16 17V20H0V18H14ZM6 4C6 2.89543 6.89543 2 8 2C9.10457 2 10 2.89543 10 4C10 5.10457 9.10457 6 8 6C6.89543 6 6 5.10457 6 4Z" fill="#5A6A72"/>
</svg>
